<?xml version="1.0" encoding="UTF-8" standalone="no"?>
<!DOCTYPE svg PUBLIC "-//W3C//DTD SVG 1.1//EN"
 "http://www.w3.org/Graphics/SVG/1.1/DTD/svg11.dtd">
<!-- Generated by graphviz version 2.43.0 (0)
 -->
<!-- Title: PropertyGraphSchema Pages: 1 -->
<svg width="790pt" height="323pt"
 viewBox="0.00 0.00 790.00 323.00" xmlns="http://www.w3.org/2000/svg" xmlns:xlink="http://www.w3.org/1999/xlink">
<g id="graph0" class="graph" transform="scale(1 1) rotate(0) translate(4 319)">
<title>PropertyGraphSchema</title>
<polygon fill="white" stroke="transparent" points="-4,4 -4,-319 786,-319 786,4 -4,4"/>
<!-- Person -->
<g id="node1" class="node">
<title>Person</title>
<polygon fill="#dbeafe" stroke="transparent" points="0,-145 0,-174 138,-174 138,-145 0,-145"/>
<polygon fill="none" stroke="#1e3a8a" points="0,-145 0,-174 138,-174 138,-145 0,-145"/>
<text text-anchor="start" x="46" y="-156.8" font-family="Helvetica,Arial,sans-serif" font-weight="bold" font-size="14.00" fill="#1e3a8a">Person</text>
<polygon fill="#ffffff" stroke="transparent" points="0,-116 0,-145 138,-145 138,-116 0,-116"/>
<polygon fill="none" stroke="#1e3a8a" points="0,-116 0,-145 138,-145 138,-116 0,-116"/>
<text text-anchor="start" x="7" y="-126.8" font-family="Helvetica,Arial,sans-serif" font-size="14.00" fill="#334155">id : int (PK)</text>
<polygon fill="#ffffff" stroke="transparent" points="0,-87 0,-116 138,-116 138,-87 0,-87"/>
<polygon fill="none" stroke="#1e3a8a" points="0,-87 0,-116 138,-116 138,-87 0,-87"/>
<text text-anchor="start" x="7" y="-97.8" font-family="Helvetica,Arial,sans-serif" font-size="14.00" fill="#334155">name : string</text>
<polygon fill="#ffffff" stroke="transparent" points="0,-58 0,-87 138,-87 138,-58 0,-58"/>
<polygon fill="none" stroke="#1e3a8a" points="0,-58 0,-87 138,-87 138,-58 0,-58"/>
<text text-anchor="start" x="7" y="-68.8" font-family="Helvetica,Arial,sans-serif" font-size="14.00" fill="#334155">gender : string</text>
<polygon fill="#ffffff" stroke="transparent" points="0,-29 0,-58 138,-58 138,-29 0,-29"/>
<polygon fill="none" stroke="#1e3a8a" points="0,-29 0,-58 138,-58 138,-29 0,-29"/>
<text text-anchor="start" x="7" y="-39.8" font-family="Helvetica,Arial,sans-serif" font-size="14.00" fill="#334155">age : int</text>
<polygon fill="#ffffff" stroke="transparent" points="0,0 0,-29 138,-29 138,0 0,0"/>
<polygon fill="none" stroke="#1e3a8a" points="0,0 0,-29 138,-29 138,0 0,0"/>
<text text-anchor="start" x="7" y="-10.8" font-family="Helvetica,Arial,sans-serif" font-size="14.00" fill="#334155">is_married : boolean</text>
</g>
<!-- Person&#45;&gt;Person -->
<g id="edge1" class="edge">
<title>Person&#45;&gt;Person</title>
<path fill="none" stroke="#475569" stroke-width="1.5" d="M43.98,-174.06C45.98,-194.72 54.32,-210 69,-210 81.73,-210 89.69,-198.51 92.89,-181.98"/>
<polygon fill="#475569" stroke="#475569" stroke-width="1.5" points="95.66,-182.37 94.02,-174.06 90.12,-181.58 95.66,-182.37"/>
<text text-anchor="middle" x="69" y="-213" font-family="Helvetica,Arial,sans-serif" font-size="10.00" fill="#0f172a"> FOLLOWS</text>
</g>
<!-- City -->
<g id="node2" class="node">
<title>City</title>
<polygon fill="#d1fae5" stroke="transparent" points="273,-286 273,-315 377,-315 377,-286 273,-286"/>
<polygon fill="none" stroke="#065f46" points="273,-286 273,-315 377,-315 377,-286 273,-286"/>
<text text-anchor="start" x="312" y="-297.8" font-family="Helvetica,Arial,sans-serif" font-weight="bold" font-size="14.00" fill="#065f46">City</text>
<polygon fill="#ffffff" stroke="transparent" points="273,-257 273,-286 377,-286 377,-257 273,-257"/>
<polygon fill="none" stroke="#065f46" points="273,-257 273,-286 377,-286 377,-257 273,-257"/>
<text text-anchor="start" x="280" y="-267.8" font-family="Helvetica,Arial,sans-serif" font-size="14.00" fill="#334155">id : int (PK)</text>
<polygon fill="#ffffff" stroke="transparent" points="273,-228 273,-257 377,-257 377,-228 273,-228"/>
<polygon fill="none" stroke="#065f46" points="273,-228 273,-257 377,-257 377,-228 273,-228"/>
<text text-anchor="start" x="280" y="-238.8" font-family="Helvetica,Arial,sans-serif" font-size="14.00" fill="#334155">name : string</text>
<polygon fill="#ffffff" stroke="transparent" points="273,-199 273,-228 377,-228 377,-199 273,-199"/>
<polygon fill="none" stroke="#065f46" points="273,-199 273,-228 377,-228 377,-199 273,-199"/>
<text text-anchor="start" x="280" y="-209.8" font-family="Helvetica,Arial,sans-serif" font-size="14.00" fill="#334155">state : string</text>
<polygon fill="#ffffff" stroke="transparent" points="273,-170 273,-199 377,-199 377,-170 273,-170"/>
<polygon fill="none" stroke="#065f46" points="273,-170 273,-199 377,-199 377,-170 273,-170"/>
<text text-anchor="start" x="280" y="-180.8" font-family="Helvetica,Arial,sans-serif" font-size="14.00" fill="#334155">country : string</text>
<polygon fill="#ffffff" stroke="transparent" points="273,-141 273,-170 377,-170 377,-141 273,-141"/>
<polygon fill="none" stroke="#065f46" points="273,-141 273,-170 377,-170 377,-141 273,-141"/>
<text text-anchor="start" x="280" y="-151.8" font-family="Helvetica,Arial,sans-serif" font-size="14.00" fill="#334155">population : int</text>
</g>
<!-- Person&#45;&gt;City -->
<g id="edge2" class="edge">
<title>Person&#45;&gt;City</title>
<path fill="none" stroke="#475569" stroke-width="1.5" d="M138.07,-124.79C177.74,-146.81 227.28,-174.31 265.24,-195.38"/>
<polygon fill="#475569" stroke="#475569" stroke-width="1.5" points="264.32,-198.07 272.68,-199.51 267.04,-193.18 264.32,-198.07"/>
<text text-anchor="middle" x="205.5" y="-186" font-family="Helvetica,Arial,sans-serif" font-size="10.00" fill="#0f172a"> LIVES_IN</text>
</g>
<!-- Interest -->
<g id="node5" class="node">
<title>Interest</title>
<polygon fill="#e0e7ff" stroke="transparent" points="279,-75 279,-104 372,-104 372,-75 279,-75"/>
<polygon fill="none" stroke="#3730a3" points="279,-75 279,-104 372,-104 372,-75 279,-75"/>
<text text-anchor="start" x="301" y="-86.8" font-family="Helvetica,Arial,sans-serif" font-weight="bold" font-size="14.00" fill="#3730a3">Interest</text>
<polygon fill="#ffffff" stroke="transparent" points="279,-46 279,-75 372,-75 372,-46 279,-46"/>
<polygon fill="none" stroke="#3730a3" points="279,-46 279,-75 372,-75 372,-46 279,-46"/>
<text text-anchor="start" x="286" y="-56.8" font-family="Helvetica,Arial,sans-serif" font-size="14.00" fill="#334155">id : int (PK)</text>
<polygon fill="#ffffff" stroke="transparent" points="279,-17 279,-46 372,-46 372,-17 279,-17"/>
<polygon fill="none" stroke="#3730a3" points="279,-17 279,-46 372,-46 372,-17 279,-17"/>
<text text-anchor="start" x="286" y="-27.8" font-family="Helvetica,Arial,sans-serif" font-size="14.00" fill="#334155">name : string</text>
</g>
<!-- Person&#45;&gt;Interest -->
<g id="edge3" class="edge">
<title>Person&#45;&gt;Interest</title>
<path fill="none" stroke="#475569" stroke-width="1.5" d="M138.07,-80.03C179.5,-75.79 231.68,-70.45 270.21,-66.51"/>
<polygon fill="#475569" stroke="#475569" stroke-width="1.5" points="270.55,-69.29 278.22,-65.69 269.97,-63.72 270.55,-69.29"/>
<text text-anchor="middle" x="205.5" y="-80" font-family="Helvetica,Arial,sans-serif" font-size="10.00" fill="#0f172a"> HAS_INTEREST</text>
</g>
<!-- State -->
<g id="node3" class="node">
<title>State</title>
<polygon fill="#ccfbf1" stroke="transparent" points="477,-257 477,-286 581,-286 581,-257 477,-257"/>
<polygon fill="none" stroke="#115e59" points="477,-257 477,-286 581,-286 581,-257 477,-257"/>
<text text-anchor="start" x="512" y="-268.8" font-family="Helvetica,Arial,sans-serif" font-weight="bold" font-size="14.00" fill="#115e59">State</text>
<polygon fill="#ffffff" stroke="transparent" points="477,-228 477,-257 581,-257 581,-228 477,-228"/>
<polygon fill="none" stroke="#115e59" points="477,-228 477,-257 581,-257 581,-228 477,-228"/>
<text text-anchor="start" x="484" y="-238.8" font-family="Helvetica,Arial,sans-serif" font-size="14.00" fill="#334155">id : int (PK)</text>
<polygon fill="#ffffff" stroke="transparent" points="477,-199 477,-228 581,-228 581,-199 477,-199"/>
<polygon fill="none" stroke="#115e59" points="477,-199 477,-228 581,-228 581,-199 477,-199"/>
<text text-anchor="start" x="484" y="-209.8" font-family="Helvetica,Arial,sans-serif" font-size="14.00" fill="#334155">name : string</text>
<polygon fill="#ffffff" stroke="transparent" points="477,-170 477,-199 581,-199 581,-170 477,-170"/>
<polygon fill="none" stroke="#115e59" points="477,-170 477,-199 581,-199 581,-170 477,-170"/>
<text text-anchor="start" x="484" y="-180.8" font-family="Helvetica,Arial,sans-serif" font-size="14.00" fill="#334155">country : string</text>
</g>
<!-- City&#45;&gt;State -->
<g id="edge4" class="edge">
<title>City&#45;&gt;State</title>
<path fill="none" stroke="#475569" stroke-width="1.5" d="M377.23,-228C405.12,-228 439.75,-228 468.79,-228"/>
<polygon fill="#475569" stroke="#475569" stroke-width="1.5" points="468.82,-230.8 476.82,-228 468.82,-225.2 468.82,-230.8"/>
<text text-anchor="middle" x="427" y="-231" font-family="Helvetica,Arial,sans-serif" font-size="10.00" fill="#0f172a"> CITY_IN</text>
</g>
<!-- Country -->
<g id="node4" class="node">
<title>Country</title>
<polygon fill="#cffafe" stroke="transparent" points="689.5,-242 689.5,-271 782.5,-271 782.5,-242 689.5,-242"/>
<polygon fill="none" stroke="#075985" points="689.5,-242 689.5,-271 782.5,-271 782.5,-242 689.5,-242"/>
<text text-anchor="start" x="709.5" y="-253.8" font-family="Helvetica,Arial,sans-serif" font-weight="bold" font-size="14.00" fill="#075985">Country</text>
<polygon fill="#ffffff" stroke="transparent" points="689.5,-213 689.5,-242 782.5,-242 782.5,-213 689.5,-213"/>
<polygon fill="none" stroke="#075985" points="689.5,-213 689.5,-242 782.5,-242 782.5,-213 689.5,-213"/>
<text text-anchor="start" x="696.5" y="-223.8" font-family="Helvetica,Arial,sans-serif" font-size="14.00" fill="#334155">id : int (PK)</text>
<polygon fill="#ffffff" stroke="transparent" points="689.5,-184 689.5,-213 782.5,-213 782.5,-184 689.5,-184"/>
<polygon fill="none" stroke="#075985" points="689.5,-184 689.5,-213 782.5,-213 782.5,-184 689.5,-184"/>
<text text-anchor="start" x="696.5" y="-194.8" font-family="Helvetica,Arial,sans-serif" font-size="14.00" fill="#334155">name : string</text>
</g>
<!-- State&#45;&gt;Country -->
<g id="edge5" class="edge">
<title>State&#45;&gt;Country</title>
<path fill="none" stroke="#475569" stroke-width="1.5" d="M581.08,-228C611.48,-228 650.03,-228 680.87,-228"/>
<polygon fill="#475569" stroke="#475569" stroke-width="1.5" points="680.95,-230.8 688.95,-228 680.95,-225.2 680.95,-230.8"/>
<text text-anchor="middle" x="635" y="-231" font-family="Helvetica,Arial,sans-serif" font-size="10.00" fill="#0f172a"> STATE_IN</text>
</g>
</g>
</svg>
